HIERARCHY
ROOT Hips
{
	OFFSET -0.001795 -0.223333 0.028219
	CHANNELS 6 Xposition Yposition Zposition Zrotation Yrotation Xrotation 
	JOINT LeftUpLeg
	{
		OFFSET 0.069520 -0.091406 -0.006815
		CHANNELS 3 Zrotation Yrotation Xrotation
		JOINT LeftLeg
		{
			OFFSET 0.034277 -0.375199 -0.004496
			CHANNELS 3 Zrotation Yrotation Xrotation
			JOINT LeftFoot
			{
				OFFSET -0.013596 -0.397961 -0.043693
				CHANNELS 3 Zrotation Yrotation Xrotation
				JOINT LeftToe
				{
					OFFSET 0.026358 -0.055791 0.119288
					CHANNELS 3 Zrotation Yrotation Xrotation
					End Site
					{
						OFFSET 0.000000 0.000000 0.000000
					}
				}
			}
		}
	}
	JOINT RightUpLeg
	{
		OFFSET -0.067670 -0.090522 -0.004320
		CHANNELS 3 Zrotation Yrotation Xrotation
		JOINT RightLeg
		{
			OFFSET -0.038290 -0.382569 -0.008850
			CHANNELS 3 Zrotation Yrotation Xrotation
			JOINT RightFoot
			{
				OFFSET 0.015774 -0.398415 -0.042312
				CHANNELS 3 Zrotation Yrotation Xrotation
				JOINT RightToe
				{
					OFFSET -0.025372 -0.048144 0.123348
					CHANNELS 3 Zrotation Yrotation Xrotation
					End Site
					{
						OFFSET 0.000000 0.000000 0.000000
					}
				}
			}
		}
	}
	JOINT Spine
	{
		OFFSET -0.002533 0.108963 -0.026696
		CHANNELS 3 Zrotation Yrotation Xrotation
		JOINT Spine1
		{
			OFFSET 0.005487 0.135180 0.001092
			CHANNELS 3 Zrotation Yrotation Xrotation
			JOINT Spine2
			{
				OFFSET 0.001457 0.052922 0.025425
				CHANNELS 3 Zrotation Yrotation Xrotation
				JOINT Neck
				{
					OFFSET -0.002778 0.213870 -0.042857
					CHANNELS 3 Zrotation Yrotation Xrotation
					JOINT Head
					{
						OFFSET 0.005152 0.064970 0.051349
						CHANNELS 3 Zrotation Yrotation Xrotation
						End Site
						{
							OFFSET 0.000000 0.000000 0.000000
						}
					}
				}
				JOINT LeftShoulder
				{
					OFFSET 0.078845 0.121749 -0.034090
					CHANNELS 3 Zrotation Yrotation Xrotation
					JOINT LeftArm
					{
						OFFSET 0.090977 0.030469 -0.008868
						CHANNELS 3 Zrotation Yrotation Xrotation
						JOINT LeftForeArm
						{
							OFFSET 0.259612 -0.012772 -0.027456
							CHANNELS 3 Zrotation Yrotation Xrotation
							JOINT LeftHand
							{
								OFFSET 0.249234 0.008986 -0.001171
								CHANNELS 3 Zrotation Yrotation Xrotation
								End Site
								{
									OFFSET 0.000000 0.000000 0.000000
								}
							}
						}
					}
				}
				JOINT RightShoulder
				{
					OFFSET -0.081759 0.118833 -0.038615
					CHANNELS 3 Zrotation Yrotation Xrotation
					JOINT RightArm
					{
						OFFSET -0.096012 0.032551 -0.009143
						CHANNELS 3 Zrotation Yrotation Xrotation
						JOINT RightForeArm
						{
							OFFSET -0.253742 -0.013329 -0.021401
							CHANNELS 3 Zrotation Yrotation Xrotation
							JOINT RightHand
							{
								OFFSET -0.255298 0.007772 -0.005559
								CHANNELS 3 Zrotation Yrotation Xrotation
								End Site
								{
									OFFSET 0.000000 0.000000 0.000000
								}
							}
						}
					}
				}
			}
		}
	}
}
MOTION
Frames: 12
Frame Time: 0.050000
0.000000 0.949702 0.000000 -3.136679 10.471063 -4.914798 2.436871 0.459277 11.019538 -3.240314 0.272983 1.154054 3.175842 8.218140 4.520805 0.000000 0.000000 0.000000 -2.852450 1.029127 -17.006536 6.743456 -2.049557 22.215652 -8.125064 -19.136002 8.617614 0.000000 0.000000 0.000000 3.914101 -1.595913 17.370743 -5.586213 2.294851 -21.252327 -3.718452 0.419331 26.769385 11.660296 -4.064199 -27.576716 0.000000 0.000000 0.000000 -16.380165 -22.014903 8.549893 -35.328985 -33.566158 3.546040 -1.273834 -44.607532 1.885724 0.000000 0.000000 0.000000 22.075062 8.904400 6.081052 43.550957 40.262618 7.732633 0.423624 47.373415 3.413558 0.000000 0.000000 0.000000 
0.001792 0.947671 0.018915 -3.235812 9.974443 -4.444166 2.898634 0.435943 11.720409 -4.117231 0.358189 1.303534 3.734900 8.780870 3.372027 0.000000 0.000000 0.000000 -3.049648 1.114207 -19.392101 7.472996 -1.822715 16.391775 -9.698560 -21.523413 13.487131 0.000000 0.000000 0.000000 3.405713 -1.506524 17.305539 -5.536818 2.215570 -22.353953 -3.605618 0.094820 27.332800 11.234025 -3.499012 -29.589498 0.000000 0.000000 0.000000 -14.249346 -21.141917 8.103462 -37.383242 -35.001099 4.211059 -0.407608 -45.532908 1.680394 0.000000 0.000000 0.000000 21.506850 9.253527 6.041951 44.767015 41.733841 8.799043 1.648781 47.863251 3.951471 0.000000 0.000000 0.000000 
0.002542 0.945106 0.040241 -2.680198 9.978795 -4.044910 2.603359 0.523461 13.142827 -4.055314 0.355196 0.814817 4.042017 9.243177 3.158635 0.000000 0.000000 0.000000 -3.182738 1.076239 -18.952569 5.624672 -0.941328 8.110853 -8.998913 -20.122024 15.128445 0.000000 0.000000 0.000000 3.710944 -1.526806 17.084369 -6.047193 2.340055 -22.365435 -3.352277 1.004779 27.211484 10.578352 -3.176636 -28.532575 0.000000 0.000000 0.000000 -14.323490 -20.839025 7.798086 -39.050633 -35.273181 4.594649 -1.290548 -46.677580 2.053422 0.000000 0.000000 0.000000 18.690533 7.257168 4.831904 48.378700 41.259508 9.861967 3.391901 48.410320 5.089316 0.000000 0.000000 0.000000 
0.001921 0.940568 0.064212 -2.943322 11.095098 -4.793049 2.852166 0.490594 15.245388 -3.516128 0.299581 0.656064 4.288989 8.772053 0.744555 0.000000 0.000000 0.000000 -3.620107 0.913438 -17.962022 5.479884 -0.777276 1.825841 -10.546470 -22.374299 16.613256 0.000000 0.000000 0.000000 5.058454 -1.855469 17.871550 -7.775131 2.779801 -22.657528 -2.841782 0.490483 27.438479 11.462128 -3.647904 -28.712788 0.000000 0.000000 0.000000 -12.679051 -20.770442 7.598616 -40.469853 -35.308368 4.815289 -3.062058 -48.450966 2.908095 0.000000 0.000000 0.000000 19.774476 6.278732 4.475378 47.998939 41.468458 9.727426 4.615877 47.984796 5.613677 0.000000 0.000000 0.000000 
-0.000445 0.935693 0.091156 -2.168100 11.518936 -4.358918 2.676227 0.525857 16.350704 -3.306048 0.278777 0.648356 4.467506 8.881887 0.231242 0.000000 0.000000 0.000000 -4.246695 0.786248 -17.896490 5.311478 -0.716166 -0.744728 -11.126647 -22.946863 18.836532 0.000000 0.000000 0.000000 4.998661 -1.830969 17.679762 -7.507559 2.756439 -22.114150 -3.634118 0.951326 26.274448 12.063155 -4.063863 -27.582308 0.000000 0.000000 0.000000 -12.872484 -20.381010 7.284460 -41.420910 -34.212940 4.707401 -5.049865 -50.325442 3.853079 0.000000 0.000000 0.000000 21.068964 6.042994 4.611193 47.934475 38.760674 8.437958 4.969659 50.297400 6.250316 0.000000 0.000000 0.000000 
-0.004551 0.931252 0.120905 -1.978582 12.741278 -4.293235 2.975919 0.423010 17.637436 -2.738532 0.213995 1.201611 3.776586 7.297983 -0.260644 0.000000 0.000000 0.000000 -3.709183 0.819902 -17.324344 5.279901 -0.729963 -0.528080 -12.355785 -24.376949 20.858908 0.000000 0.000000 0.000000 5.749243 -1.986307 17.643660 -8.616293 3.001091 -22.602936 -2.990497 0.376862 26.373466 12.593254 -4.284424 -27.994979 0.000000 0.000000 0.000000 -13.827795 -20.689517 7.440972 -41.285104 -32.853678 4.264932 -8.296055 -52.611459 5.617791 0.000000 0.000000 0.000000 21.544611 5.782285 4.566378 46.261313 37.395910 7.264997 7.473888 50.534878 7.439400 0.000000 0.000000 0.000000 
-0.010466 0.926745 0.153667 -1.910313 14.289368 -4.096832 3.866979 0.148169 18.866114 -2.382525 0.162497 1.790075 2.977289 5.460998 -0.728244 0.000000 0.000000 0.000000 -3.341022 0.837544 -17.590527 5.969667 -0.924606 2.491190 -14.021053 -26.156132 23.322584 0.000000 0.000000 0.000000 6.486337 -2.077885 17.089337 -8.790806 3.106715 -21.931594 -3.249174 -0.435849 25.935820 12.894528 -4.410480 -28.108555 0.000000 0.000000 0.000000 -14.450636 -19.527213 6.889181 -41.667725 -31.874964 4.034542 -10.706603 -53.571618 6.925784 0.000000 0.000000 0.000000 21.321982 5.404177 4.330232 47.230252 35.997955 6.974728 8.405200 50.463661 7.888846 0.000000 0.000000 0.000000 
-0.018199 0.923916 0.189458 -2.079073 15.646937 -3.791452 5.240868 -0.249018 19.307951 -2.461494 0.111100 3.998500 2.860250 4.673704 -1.687132 0.000000 0.000000 0.000000 -3.057838 0.858863 -18.323757 7.792494 -1.497337 6.546442 -15.520585 -27.960368 24.089339 0.000000 0.000000 0.000000 7.290532 -2.261444 17.075660 -9.448640 3.209276 -22.588176 -2.274574 -1.253013 26.087695 12.504621 -3.993143 -29.173524 0.000000 0.000000 0.000000 -16.487286 -18.848354 6.638749 -40.527346 -29.926222 3.271858 -12.591517 -54.594264 8.043948 0.000000 0.000000 0.000000 20.941093 4.698396 3.902540 46.907177 36.244203 6.963423 9.963260 48.045370 8.089641 0.000000 0.000000 0.000000 
-0.027099 0.923779 0.226833 -2.515789 16.303712 -3.599322 7.309478 -0.730525 18.639611 -3.051336 0.068391 7.667070 1.997297 4.108730 0.423611 0.000000 0.000000 0.000000 -2.291090 0.980473 -18.309470 8.904574 -2.005719 9.566957 -15.889005 -28.553512 23.631729 0.000000 0.000000 0.000000 8.260051 -2.378686 16.589423 -9.163037 3.181903 -22.113378 -2.810291 -1.666846 25.746666 13.075802 -4.307479 -29.258806 0.000000 0.000000 0.000000 -17.584706 -18.618993 6.551619 -39.927742 -29.410390 3.084650 -13.007282 -52.742835 7.938777 0.000000 0.000000 0.000000 21.776100 5.092176 4.207805 45.817276 36.872818 6.903813 8.446127 44.723044 6.651147 0.000000 0.000000 0.000000 
-0.036602 0.925505 0.264080 -2.289339 16.288159 -3.105242 8.813801 -0.941557 16.613613 -3.884276 -0.005212 13.027709 1.264667 4.215792 3.226699 0.000000 0.000000 0.000000 -1.918644 1.016391 -17.054466 10.193030 -2.459810 10.808889 -15.446963 -28.658142 21.172936 0.000000 0.000000 0.000000 8.250040 -2.345230 16.340577 -8.974614 3.151573 -21.832937 -3.145379 -1.761830 25.204933 13.716852 -4.738977 -28.958124 0.000000 0.000000 0.000000 -17.528078 -18.077214 6.302434 -39.754810 -28.936191 2.946584 -12.664087 -51.482075 7.558254 0.000000 0.000000 0.000000 21.979442 5.114118 4.178402 45.760192 36.906962 6.951658 7.056374 41.834746 5.518054 0.000000 0.000000 0.000000 
-0.045808 0.929832 0.299180 -2.175847 15.805683 -2.213601 10.629543 -1.041119 12.652124 -6.280415 0.210317 20.246943 0.975624 4.951763 5.839097 0.000000 0.000000 0.000000 -1.300675 1.102149 -16.052720 10.207730 -2.514540 11.574030 -14.604736 -28.183358 18.675336 0.000000 0.000000 0.000000 8.353939 -2.173936 15.169040 -9.056711 3.208625 -21.198268 -2.707172 -2.299274 24.674435 11.972661 -3.991894 -28.256659 0.000000 0.000000 0.000000 -18.250982 -17.331090 6.176466 -39.281222 -28.755896 2.834793 -13.360632 -50.756784 7.904330 0.000000 0.000000 0.000000 21.739104 5.612336 4.181264 45.286849 36.224814 6.601317 5.679650 39.641083 4.556287 0.000000 0.000000 0.000000 
-0.053751 0.934873 0.330668 -1.684429 15.822608 -1.480179 13.240111 -1.170306 7.742757 -10.703979 1.183926 27.578698 2.129154 8.388806 9.703485 0.000000 0.000000 0.000000 -0.069381 1.177217 -14.001192 8.925188 -2.080785 10.605147 -13.545814 -27.243400 16.187099 0.000000 0.000000 0.000000 7.839283 -2.023819 14.656414 -9.411969 3.273069 -21.240254 -2.305421 -2.998816 24.437459 11.104185 -3.843925 -27.006551 0.000000 0.000000 0.000000 -18.734861 -17.149310 6.296739 -39.051600 -28.724707 2.782081 -14.318332 -50.070709 8.343827 0.000000 0.000000 0.000000 21.879385 5.535133 3.923404 45.233235 35.105377 6.154488 4.934624 39.956156 4.280647 0.000000 0.000000 0.000000 
